<svg xmlns="http://www.w3.org/2000/svg" width="256" height="256" viewBox="0 0 100 100"><rect width="100" height="100" rx="0" fill="#2f2f2f"></rect><path d="M13.56 23.60L13.56 70.40L43.80 70.40L43.80 76.40L7.16 76.40L7.16 23.60L13.56 23.60ZM71.96 22.80L71.96 22.80Q78.92 22.80 83.96 25.64Q89 28.48 92.36 34.00L92.36 34.00L87 38.16Q84.04 33.04 80.32 30.92Q76.60 28.80 71.32 28.80L71.32 28.80Q67.08 28.80 64.32 30.00Q61.56 31.20 60.28 33.16Q59 35.12 59 37.60L59 37.60Q59 40.40 60.76 42.52Q62.52 44.64 67.80 45.84L67.80 45.84L79.24 48.40Q86.84 50.08 89.84 53.48Q92.84 56.88 92.84 61.92L92.84 61.92Q92.84 66.40 90.32 69.88Q87.80 73.36 83.24 75.28Q78.68 77.20 72.52 77.20L72.52 77.20Q66.76 77.20 62.40 75.64Q58.04 74.08 54.92 71.44Q51.80 68.80 49.80 65.52L49.80 65.52L55.40 60.96Q56.92 64 59.32 66.32Q61.72 68.64 65.12 69.92Q68.52 71.20 72.92 71.20L72.92 71.20Q77 71.20 80 70.20Q83 69.20 84.60 67.24Q86.20 65.28 86.20 62.48L86.20 62.48Q86.20 59.92 84.52 57.88Q82.84 55.84 78.20 54.80L78.20 54.80L65.80 52Q60.92 50.88 57.92 48.92Q54.92 46.96 53.60 44.28Q52.28 41.60 52.28 38.48L52.28 38.48Q52.28 34.24 54.64 30.68Q57 27.12 61.44 24.96Q65.88 22.80 71.96 22.80Z" fill="#007ab5"></path></svg>